<svg version="1.1" viewBox="0.0 0.0 100.0 100.0" fill="none" stroke="none" stroke-linecap="square" stroke-miterlimit="10" xmlns:xlink="http://www.w3.org/1999/xlink" xmlns="http://www.w3.org/2000/svg"><clipPath id="p.0"><path d="m0 0l100.0 0l0 100.0l-100.0 0l0 -100.0z" clip-rule="nonzero"/></clipPath><g clip-path="url(#p.0)"><path fill="#000000" fill-opacity="0.0" d="m0 0l100.0 0l0 100.0l-100.0 0z" fill-rule="evenodd"/><path fill="#000000" fill-opacity="0.0" d="m22.309711 1.2099738l58.236217 0l0 85.637794l-58.236217 0z" fill-rule="evenodd"/><path fill="#ffffff" d="m46.05971 60.368725q-0.03125 -1.125 -0.03125 -1.6875q0 -3.3125 0.9375 -5.71875q0.6875 -1.8125 2.21875 -3.65625q1.125 -1.34375 4.046875 -3.921875q2.921875 -2.578125 3.796875 -4.109375q0.875 -1.53125 0.875 -3.34375q0 -3.28125 -2.5625 -5.765625q-2.5625 -2.484373 -6.28125 -2.484373q-3.59375 0 -6.0 2.25q-2.40625 2.249998 -3.15625 7.031248l-5.78125 -0.6875q0.78125 -6.406248 4.640625 -9.812498q3.859375 -3.40625 10.203125 -3.40625q6.71875 0 10.71875 3.65625q4.0 3.656248 4.0 8.843748q0 3.0 -1.40625 5.53125q-1.40625 2.53125 -5.5 6.15625q-2.75 2.4375 -3.59375 3.59375q-0.84375 1.15625 -1.25 2.65625q-0.40625 1.5 -0.46875 4.875l-5.40625 0zm-0.34375 11.281254l0 -6.40625l6.40625 0l0 6.40625l-6.40625 0z" fill-rule="nonzero"/><path fill="#000000" fill-opacity="0.0" d="m15.307087 50.0l0 0c0 -19.160366 15.532547 -34.692913 34.692913 -34.692913l0 0c9.201134 0 18.025414 3.655136 24.531593 10.161318c6.5061874 6.5061836 10.161324 15.3304615 10.161324 24.531595l0 0c0 19.16037 -15.532547 34.692917 -34.692917 34.692917l0 0c-19.160366 0 -34.692913 -15.532547 -34.692913 -34.692917z" fill-rule="evenodd"/><path stroke="#ffffff" stroke-width="4.0" stroke-linejoin="round" stroke-linecap="butt" d="m15.307087 50.0l0 0c0 -19.160366 15.532547 -34.692913 34.692913 -34.692913l0 0c9.201134 0 18.025414 3.655136 24.531593 10.161318c6.5061874 6.5061836 10.161324 15.3304615 10.161324 24.531595l0 0c0 19.16037 -15.532547 34.692917 -34.692917 34.692917l0 0c-19.160366 0 -34.692913 -15.532547 -34.692913 -34.692917z" fill-rule="evenodd"/></g></svg>