<svg version="1.1" viewBox="0.0 0.0 100.0 100.0" fill="none" stroke="none" stroke-linecap="square" stroke-miterlimit="10" xmlns:xlink="http://www.w3.org/1999/xlink" xmlns="http://www.w3.org/2000/svg"><clipPath id="p.0"><path d="m0 0l100.0 0l0 100.0l-100.0 0l0 -100.0z" clip-rule="nonzero"/></clipPath><g clip-path="url(#p.0)"><path fill="#000000" fill-opacity="0.0" d="m0 0l100.0 0l0 100.0l-100.0 0z" fill-rule="evenodd"/><path fill="#000000" fill-opacity="0.0" d="m22.905512 21.501312l46.173233 0" fill-rule="evenodd"/><path stroke="#ffffff" stroke-width="4.0" stroke-linejoin="round" stroke-linecap="butt" d="m22.905512 21.501312l46.173233 0" fill-rule="evenodd"/><path fill="#000000" fill-opacity="0.0" d="m22.905512 71.39895l47.086617 0" fill-rule="evenodd"/><path stroke="#ffffff" stroke-width="4.0" stroke-linejoin="round" stroke-linecap="butt" d="m22.905512 71.39895l47.086617 0" fill-rule="evenodd"/><path fill="#000000" fill-opacity="0.0" d="m24.855642 21.501312l0 49.480316" fill-rule="evenodd"/><path stroke="#ffffff" stroke-width="4.0" stroke-linejoin="round" stroke-linecap="butt" d="m24.855642 21.501312l0 49.480316" fill-rule="evenodd"/><path fill="#000000" fill-opacity="0.0" d="m39.92126 45.656166l38.834644 0" fill-rule="evenodd"/><path stroke="#ffffff" stroke-width="4.0" stroke-linejoin="round" stroke-linecap="butt" d="m39.92126 45.656166l38.834644 0" fill-rule="evenodd"/><path fill="#000000" fill-opacity="0.0" d="m74.561676 32.412075l13.826775 13.826771" fill-rule="evenodd"/><path stroke="#ffffff" stroke-width="4.0" stroke-linejoin="round" stroke-linecap="butt" d="m74.561676 32.412075l13.826775 13.826771" fill-rule="evenodd"/><path fill="#000000" fill-opacity="0.0" d="m87.25459 44.74803l-12.692917 12.692913" fill-rule="evenodd"/><path stroke="#ffffff" stroke-width="4.0" stroke-linejoin="round" stroke-linecap="butt" d="m87.25459 44.74803l-12.692917 12.692913" fill-rule="evenodd"/></g></svg>