<svg version="1.1" viewBox="0.0 0.0 100.0 100.0" fill="none" stroke="none" stroke-linecap="square" stroke-miterlimit="10" xmlns:xlink="http://www.w3.org/1999/xlink" xmlns="http://www.w3.org/2000/svg"><clipPath id="p.0"><path d="m0 0l100.0 0l0 100.0l-100.0 0l0 -100.0z" clip-rule="nonzero"/></clipPath><g clip-path="url(#p.0)"><path fill="#000000" fill-opacity="0.0" d="m0 0l100.0 0l0 100.0l-100.0 0z" fill-rule="evenodd"/><path fill="#000000" fill-opacity="0.0" d="m17.200642 79.6802l66.20473 0" fill-rule="evenodd"/><path stroke="#ffffff" stroke-width="4.0" stroke-linejoin="round" stroke-linecap="butt" d="m17.200642 79.6802l66.20473 0" fill-rule="evenodd"/><path fill="#000000" fill-opacity="0.0" d="m35.614178 46.85386l0 0c-7.0192413 -7.7625275 -6.365452 -19.551983 1.4716187 -26.536894c7.8370705 -6.984909 19.983318 -6.6036863 27.339993 0.85809517c7.356682 7.4617825 7.2258606 19.267654 -0.29445648 26.573841l-13.826771 -13.433071z" fill-rule="evenodd"/><path fill="#000000" fill-opacity="0.0" d="m35.614178 46.85386l0 0c-7.0192413 -7.7625275 -6.365452 -19.551983 1.4716187 -26.536894c7.8370705 -6.984909 19.983318 -6.6036863 27.339993 0.85809517c7.356682 7.4617825 7.2258606 19.267654 -0.29445648 26.573841" fill-rule="evenodd"/><path stroke="#ffffff" stroke-width="4.0" stroke-linejoin="round" stroke-linecap="butt" d="m35.614178 46.85386l0 0c-7.0192413 -7.7625275 -6.365452 -19.551983 1.4716187 -26.536894c7.8370705 -6.984909 19.983318 -6.6036863 27.339993 0.85809517c7.356682 7.4617825 7.2258606 19.267654 -0.29445648 26.573841" fill-rule="evenodd"/><path fill="#000000" fill-opacity="0.0" d="m35.709267 47.272434c-2.056652 1.6598015 -9.153526 4.557522 -12.339905 9.958801c-3.1863766 5.4012833 -5.648632 18.707401 -6.7783604 22.448887" fill-rule="evenodd"/><path stroke="#ffffff" stroke-width="4.0" stroke-linejoin="round" stroke-linecap="butt" d="m35.709267 47.272434c-2.056652 1.6598015 -9.153526 4.557522 -12.339905 9.958801c-3.1863766 5.4012833 -5.648632 18.707401 -6.7783604 22.448887" fill-rule="evenodd"/><path fill="#000000" fill-opacity="0.0" d="m64.03235 47.272434c2.056656 1.6598015 9.153526 4.557522 12.339905 9.958801c3.1863785 5.4012833 5.648636 18.707401 6.7783585 22.448887" fill-rule="evenodd"/><path stroke="#ffffff" stroke-width="4.0" stroke-linejoin="round" stroke-linecap="butt" d="m64.03235 47.272434c2.056656 1.6598015 9.153526 4.557522 12.339905 9.958801c3.1863785 5.4012833 5.648636 18.707401 6.7783585 22.448887" fill-rule="evenodd"/></g></svg>