<svg version="1.1" viewBox="0.0 0.0 100.0 100.0" fill="none" stroke="none" stroke-linecap="square" stroke-miterlimit="10" xmlns:xlink="http://www.w3.org/1999/xlink" xmlns="http://www.w3.org/2000/svg"><clipPath id="p.0"><path d="m0 0l100.0 0l0 100.0l-100.0 0l0 -100.0z" clip-rule="nonzero"/></clipPath><g clip-path="url(#p.0)"><path fill="#000000" fill-opacity="0.0" d="m0 0l100.0 0l0 100.0l-100.0 0z" fill-rule="evenodd"/><path fill="#000000" fill-opacity="0.0" d="m22.29774 49.536552l0 0c-0.64954185 -3.6886902 1.483036 -7.340271 5.4928036 -9.405239c4.0097656 -2.064968 9.193495 -2.181179 13.3515415 -0.2993126l0 0c1.4729042 -2.1447563 4.1687546 -3.6255646 7.2721024 -3.9945068c3.1033516 -0.36894226 6.2496986 0.41731644 8.487339 2.1209488l0 0c1.2547264 -1.9445763 3.7184067 -3.2510834 6.516796 -3.455906c2.7983894 -0.20481873 5.5354424 0.721035 7.2399178 2.4490166l0 0c2.2668533 -2.061245 5.8734665 -2.9291153 9.259239 -2.228077c3.3857727 0.70103836 5.9425964 2.84507 6.56411 5.50436l0 0c2.777275 0.58540344 5.090683 2.073574 6.3425217 4.080017c1.251831 2.006443 1.3192978 4.3343315 0.18495178 6.38221l0 0c2.7348022 2.7505302 3.3745422 6.415573 1.6804733 9.627407c-1.6940613 3.2118301 -5.467415 5.487911 -9.911911 5.97884c-0.031326294 3.0144196 -2.1706772 5.7804184 -5.593445 7.2318497c-3.4227753 1.4514389 -7.59449 1.3616638 -10.907188 -0.2347107c-1.4110336 3.6102905 -5.3826294 6.2667084 -10.198902 6.821579c-4.8162727 0.5548706 -9.613819 -1.0912704 -12.31992 -4.2272263c-3.3171082 1.545723 -7.297367 1.9909973 -11.042904 1.2353745c-3.7455368 -0.75562286 -6.9408493 -2.648491 -8.865139 -5.25161l0 0c-3.3896713 0.30652618 -6.667015 -1.0505905 -8.205496 -3.3978195c-1.5384827 -2.347229 -1.0105972 -5.1848946 1.3216686 -7.104679l0 0c-3.023675 -1.3752441 -4.566536 -4.1041794 -3.8240414 -6.7637787c0.7424936 -2.6595993 3.6020908 -4.6471825 7.0876217 -4.9263077z" fill-rule="evenodd"/><path fill="#000000" fill-opacity="0.0" d="m18.967155 61.368805l0 0c1.4268818 0.6489792 3.075264 0.9433708 4.7238255 0.8436508m2.1592598 9.659088c0.7089424 -0.0641098 1.403841 -0.19986725 2.0667725 -0.40377808m17.84028 4.419838c-0.4986229 -0.57782745 -0.91609573 -1.1952896 -1.2453041 -1.8418655m23.764988 -0.752594l0 0c0.25724792 -0.65821075 0.4239273 -1.3356476 0.4972458 -2.021019m16.002762 -4.9758606c0.033355713 -3.2093163 -2.3254929 -6.1478004 -6.063339 -7.5532837m14.294693 -8.052631c-0.6053314 1.0928345 -1.5294342 2.062271 -2.6998596 2.832302m-3.8270416 -13.294811l0 0c0.103141785 0.44130707 0.1508789 0.8892517 0.14253998 1.3376198m-15.965614 -4.6137733l0 0c-0.56546783 0.5141792 -1.0313339 1.088768 -1.3831024 1.7058716m-12.373745 -0.6992073l0 0c-0.30134583 0.46702194 -0.526371 0.961216 -0.66989136 1.4711914m-15.089783 0.4024048l0 0c0.87984085 0.398201 1.6938095 0.87747955 2.424034 1.4273071m-21.268135 8.277298l0 0c0.08952522 0.50839996 0.2309761 1.0105286 0.42303276 1.5016899" fill-rule="evenodd"/><path stroke="#ffffff" stroke-width="4.0" stroke-linejoin="round" stroke-linecap="butt" d="m22.29774 49.536552l0 0c-0.64954185 -3.6886902 1.483036 -7.340271 5.4928036 -9.405239c4.0097656 -2.064968 9.193495 -2.181179 13.3515415 -0.2993126l0 0c1.4729042 -2.1447563 4.1687546 -3.6255646 7.2721024 -3.9945068c3.1033516 -0.36894226 6.2496986 0.41731644 8.487339 2.1209488l0 0c1.2547264 -1.9445763 3.7184067 -3.2510834 6.516796 -3.455906c2.7983894 -0.20481873 5.5354424 0.721035 7.2399178 2.4490166l0 0c2.2668533 -2.061245 5.8734665 -2.9291153 9.259239 -2.228077c3.3857727 0.70103836 5.9425964 2.84507 6.56411 5.50436l0 0c2.777275 0.58540344 5.090683 2.073574 6.3425217 4.080017c1.251831 2.006443 1.3192978 4.3343315 0.18495178 6.38221l0 0c2.7348022 2.7505302 3.3745422 6.415573 1.6804733 9.627407c-1.6940613 3.2118301 -5.467415 5.487911 -9.911911 5.97884c-0.031326294 3.0144196 -2.1706772 5.7804184 -5.593445 7.2318497c-3.4227753 1.4514389 -7.59449 1.3616638 -10.907188 -0.2347107c-1.4110336 3.6102905 -5.3826294 6.2667084 -10.198902 6.821579c-4.8162727 0.5548706 -9.613819 -1.0912704 -12.31992 -4.2272263c-3.3171082 1.545723 -7.297367 1.9909973 -11.042904 1.2353745c-3.7455368 -0.75562286 -6.9408493 -2.648491 -8.865139 -5.25161l0 0c-3.3896713 0.30652618 -6.667015 -1.0505905 -8.205496 -3.3978195c-1.5384827 -2.347229 -1.0105972 -5.1848946 1.3216686 -7.104679l0 0c-3.023675 -1.3752441 -4.566536 -4.1041794 -3.8240414 -6.7637787c0.7424936 -2.6595993 3.6020908 -4.6471825 7.0876217 -4.9263077z" fill-rule="evenodd"/><path stroke="#ffffff" stroke-width="4.0" stroke-linejoin="round" stroke-linecap="butt" d="m18.967155 61.368805l0 0c1.4268818 0.6489792 3.075264 0.9433708 4.7238255 0.8436508m2.1592598 9.659088c0.7089424 -0.0641098 1.403841 -0.19986725 2.0667725 -0.40377808m17.84028 4.419838c-0.4986229 -0.57782745 -0.91609573 -1.1952896 -1.2453041 -1.8418655m23.764988 -0.752594l0 0c0.25724792 -0.65821075 0.4239273 -1.3356476 0.4972458 -2.021019m16.002762 -4.9758606c0.033355713 -3.2093163 -2.3254929 -6.1478004 -6.063339 -7.5532837m14.294693 -8.052631c-0.6053314 1.0928345 -1.5294342 2.062271 -2.6998596 2.832302m-3.8270416 -13.294811l0 0c0.103141785 0.44130707 0.1508789 0.8892517 0.14253998 1.3376198m-15.965614 -4.6137733l0 0c-0.56546783 0.5141792 -1.0313339 1.088768 -1.3831024 1.7058716m-12.373745 -0.6992073l0 0c-0.30134583 0.46702194 -0.526371 0.961216 -0.66989136 1.4711914m-15.089783 0.4024048l0 0c0.87984085 0.398201 1.6938095 0.87747955 2.424034 1.4273071m-21.268135 8.277298l0 0c0.08952522 0.50839996 0.2309761 1.0105286 0.42303276 1.5016899" fill-rule="evenodd"/><path fill="#000000" fill-opacity="0.0" d="m14.7901745 57.178654l0 0c-9.363731 -6.1771965 -12.884925 -17.402367 -8.522947 -27.170193c4.3619776 -9.76783 15.474964 -15.543045 26.898655 -13.978743c11.423691 1.5643024 20.193035 10.062103 21.22594 20.568682l-24.939068 2.0446434z" fill-rule="evenodd"/><path fill="#000000" fill-opacity="0.0" d="m14.7901745 57.178654l0 0c-9.363731 -6.1771965 -12.884925 -17.402367 -8.522947 -27.170193c4.3619776 -9.76783 15.474964 -15.543045 26.898655 -13.978743c11.423691 1.5643024 20.193035 10.062103 21.22594 20.568682" fill-rule="evenodd"/><path stroke="#ffffff" stroke-width="4.0" stroke-linejoin="round" stroke-linecap="butt" d="m14.7901745 57.178654l0 0c-9.363731 -6.1771965 -12.884925 -17.402367 -8.522947 -27.170193c4.3619776 -9.76783 15.474964 -15.543045 26.898655 -13.978743c11.423691 1.5643024 20.193035 10.062103 21.22594 20.568682" fill-rule="evenodd"/></g></svg>